<?xml version="1.0" standalone="no"?> <!DOCTYPE svg PUBLIC "-//W3C//DTD SVG 1.0//EN" "http://www.w3.org/TR/2001/REC-SVG-20010904/DTD/svg10.dtd" > <svg xmlns="http://www.w3.org/2000/svg" width="100%" height="100%">
<defs >
<font id="zurich-bt-roman" horiz-adv-x="946" ><font-face
    font-family="Zurich BT"
    units-per-em="2048"
    panose-1="2 11 6 3 2 2 2 3 2 4"
    ascent="1972"
    descent="-483"
    alphabetic="0" />
<missing-glyph horiz-adv-x="1229" d="M102 -362V1444H1126V-362H102ZM217 -248H1012V1329H217V-248Z" />
<glyph unicode=" " glyph-name="space" horiz-adv-x="567" />
<glyph unicode="!" glyph-name="exclam" horiz-adv-x="758" d="M305 344L270 1475H489L455 344H305ZM276 0V207H481V0H276Z" />
<glyph unicode="&quot;" glyph-name="quotedbl" horiz-adv-x="614" d="M524 1436V881H385V1436H524ZM229 1436V881H90V1436H229Z" />
<glyph unicode="#" glyph-name="numbersign" horiz-adv-x="1575" d="M969 858H709L616 594H877L969 858ZM924 1458L762 1004H1018L1182 1458H1346L1186 1004H1487L1436 858H1133L1040 596H1362L1311 449H989L827 -4H662L823 449H565L403 -4H238L397 449H88L141
596H451L543 858H213L264 1004H596L758 1458H924Z" />
<glyph unicode="$" glyph-name="dollar" horiz-adv-x="1133" d="M713 602L616 625L617 160Q741 169 813 234T885 403Q885 479 840 530T713 602ZM516 647L328 705Q201 743 139 824T76 1034Q76 1201 195 1308T516 1425V1595H616L617 1427Q807 1424 916 1331T1026
1081V1065H844Q839 1156 782 1208T616 1272V819L719 791Q906 740 987 655T1069 428Q1069 238 951 127T616 0V-199H516V0Q293 0 178 102T63 406V426L254 425Q259 299 321 236T516 160V647ZM516 844V1271Q407 1269 338 1206T268 1047Q268 981 304 941T432 870L516
844Z" />
<glyph unicode="%" glyph-name="percent" horiz-adv-x="2015" d="M1360 352Q1360 231 1399 167T1513 102Q1591 102 1633 170T1675 365Q1675 479 1634 541T1518 604Q1441 604 1401 540T1360 352ZM1194 348Q1194 530 1278 627T1518 725Q1672 725 1755 632T1839 367Q1839
178 1753 77T1507 -25Q1357 -25 1276 72T1194 348ZM1364 1450H1493L651 -25H522L1364 1450ZM340 1077Q340 956 379 892T494 827Q571 827 613 895T655 1090Q655 1205 615 1267T500 1329Q423 1329 382 1264T340 1077ZM176 1073Q176 1255 260 1352T500 1450Q653 1450
736 1357T819 1092Q819 902 734 801T489 700Q339 700 258 797T176 1073Z" />
<glyph unicode="&amp;" glyph-name="ampersand" horiz-adv-x="1241" d="M793 168V666H612Q445 666 373 608T301 420Q301 280 364 224T602 168H793ZM762 1309H614Q471 1309 407 1253T342 1073Q342 953 409 892T610 831H793V1055H993V831H1174V666H993V0H545Q431
0 374 10T272 45Q187 89 139 179T90 387Q90 541 165 638T373 752Q264 779 202 867T139 1083Q139 1270 259 1373T598 1477H762V1309Z" />
<glyph unicode="&apos;" glyph-name="quotesingle" horiz-adv-x="317" d="M229 1436V881H90V1436H229Z" />
<glyph unicode="(" glyph-name="parenleft" horiz-adv-x="645" d="M397 -287Q253 90 209 274T164 618Q164 797 214 1001T383 1497H522Q418 1162 381 976T344 635Q344 468 388 255T539 -287H397Z" />
<glyph unicode=")" glyph-name="parenright" horiz-adv-x="645" d="M123 -287Q227 48 264 234T301 575Q301 742 257 955T106 1497H248Q393 1118 437 936T481 594Q481 417 431 213T260 -287H123Z" />
<glyph unicode="*" glyph-name="asterisk" horiz-adv-x="1081" d="M395 705L264 784L473 1065L135 1028V1182L473 1145L264 1419L395 1497L541 1184L674 1497L807 1419L608 1145L946 1182V1028L608 1065L807 784L674 705L541 1026L395 705Z" />
<glyph unicode="+" glyph-name="plus" horiz-adv-x="1706" d="M924 1221V680H1452V541H924V0H782V541H254V680H782V1221H924Z" />
<glyph unicode="," glyph-name="comma" horiz-adv-x="567" d="M98 -254L233 250H469L240 -254H98Z" />
<glyph unicode="-" glyph-name="hyphen" horiz-adv-x="678" d="M96 428V600H582V428H96Z" />
<glyph unicode="." glyph-name="period" horiz-adv-x="567" d="M172 0V252H395V0H172Z" />
<glyph unicode="/" glyph-name="slash" horiz-adv-x="616" d="M-33 -147L502 1497H625L90 -147H-33Z" />
<glyph unicode="0" glyph-name="zero" horiz-adv-x="1133" d="M293 707Q293 412 359 276T567 139Q707 139 772 280T838 723Q838 1012 771 1151T565 1290Q427 1290 360 1147T293 707ZM94 705Q94 928 120 1052T205 1264Q270 1358 359 1405T563 1452Q691 1452 790
1394T950 1225Q997 1139 1017 1020T1038 684Q1038 329 922 153T569 -23Q325 -23 210 154T94 705Z" />
<glyph unicode="1" glyph-name="one" horiz-adv-x="1133" d="M571 0V1194Q500 1134 422 1086T256 999V1210Q361 1260 437 1313T571 1427H768V0H571Z" />
<glyph unicode="2" glyph-name="two" horiz-adv-x="1133" d="M1012 0H121V205Q518 565 666 751T815 1061Q815 1162 751 1224T584 1286Q477 1286 419 1223T360 1042H143Q149 1237 261 1344T569 1452Q772 1452 893 1346T1014 1059Q1014 932 952 818T690 504L354
168H1012V0Z" />
<glyph unicode="3" glyph-name="three" horiz-adv-x="1133" d="M84 378H299Q308 260 369 203T551 145Q685 145 763 212T842 393Q842 522 751 592T489 662Q481 662 465 661T440 659L441 815Q632 820 723 881T815 1065Q815 1166 750 1225T573 1284Q458 1284 389
1227T315 1071H111Q114 1246 235 1348T565 1450Q774 1450 897 1345T1020 1063Q1020 948 955 867T762 739Q895 712 969 620T1044 391Q1044 204 907 90T541 -25Q323 -25 205 80T84 378Z" />
<glyph unicode="4" glyph-name="four" horiz-adv-x="1133" d="M698 0V307H51V557L662 1427H889V477H1081V307H889V0H698ZM698 477V1221L207 477H698Z" />
<glyph unicode="5" glyph-name="five" horiz-adv-x="1133" d="M111 348H328Q346 247 406 197T569 147Q696 147 767 235T838 481Q838 623 766 699T561 776Q463 776 400 726T319 584H135L168 1427H954V1266H340L322 811Q390 878 458 907T614 936Q804 936 923 808T1042
475Q1042 254 901 115T532 -25Q345 -25 232 75T111 348Z" />
<glyph unicode="6" glyph-name="six" horiz-adv-x="1133" d="M291 750Q342 838 427 885T621 932Q806 932 924 807T1042 481Q1042 252 914 116T573 -20Q329 -20 208 151T86 670Q86 1055 216 1253T600 1452Q776 1452 889 1356T1011 1100H807Q795 1194 738 1247T594
1300Q443 1300 368 1164T291 750ZM307 457Q307 314 383 227T580 139Q703 139 777 225T852 459Q852 601 778 687T586 774Q464 774 386 686T307 457Z" />
<glyph unicode="7" glyph-name="seven" horiz-adv-x="1133" d="M270 0L821 1251H96V1427H1010V1235L512 0H270Z" />
<glyph unicode="8" glyph-name="eight" horiz-adv-x="1133" d="M391 752Q256 784 179 872T102 1083Q102 1242 233 1346T565 1450Q769 1450 900 1347T1032 1083Q1032 956 957 868T750 752Q893 721 974 625T1055 389Q1055 204 921 90T567 -25Q342 -25 211 89T80
397Q80 534 158 623T391 752ZM305 1071Q305 973 378 907T565 840Q688 840 759 902T831 1071Q831 1174 759 1236T563 1298Q453 1298 379 1233T305 1071ZM289 397Q289 283 365 211T563 139Q690 139 768 211T846 399Q846 519 771 592T569 666Q443 666 366 591T289
397Z" />
<glyph unicode="9" glyph-name="nine" horiz-adv-x="1133" d="M838 684Q785 593 700 546T504 498Q318 498 201 624T84 958Q84 1180 214 1315T551 1450Q797 1450 918 1279T1040 764Q1040 376 912 177T532 -23Q352 -23 240 72T119 327L326 328Q338 236 394 184T537
131Q689 131 763 267T838 684ZM819 973Q819 1116 745 1204T553 1292Q425 1292 350 1205T274 969Q274 828 348 743T543 657Q663 657 741 745T819 973Z" />
<glyph unicode=":" glyph-name="colon" horiz-adv-x="758" d="M268 1028H489V776H268V1028ZM268 0V252H489V0H268Z" />
<glyph unicode=";" glyph-name="semicolon" horiz-adv-x="758" d="M141 -254L276 250H512L283 -254H141ZM492 1028V776H268V1028H492Z" />
<glyph unicode="&lt;" glyph-name="less" horiz-adv-x="1706" d="M1442 1006L473 610L1442 217V63L264 547V676L1442 1159V1006Z" />
<glyph unicode="=" glyph-name="equal" horiz-adv-x="1706" d="M1452 481V342H254V481H1452ZM1452 879V739H254V879H1452Z" />
<glyph unicode="&gt;" glyph-name="greater" horiz-adv-x="1706" d="M1442 676V547L264 63V217L1235 610L264 1006V1159L1442 676Z" />
<glyph unicode="?" glyph-name="question" horiz-adv-x="1006" d="M344 340V539Q344 641 399 696L401 698L425 722Q676 979 676 1104Q676 1204 602 1264T403 1325Q336 1325 268 1310T131 1266V1452Q205 1476 274 1487T410 1499Q626 1499 757 1398T889 1130Q889
948 620 693L610 684Q596 670 572 649Q514 596 514 514V340H344ZM326 0V213H539V0H326Z" />
<glyph unicode="@" glyph-name="at" horiz-adv-x="2048" d="M1284 854L1341 969H1473L1327 393Q1323 377 1321 362T1319 334Q1319 288 1344 264T1419 240Q1467 240 1521 266T1628 342Q1708 418 1753 528T1798 762Q1798 1021 1608 1182T1108 1343Q975 1343 862
1315T651 1229Q460 1115 355 930T250 520Q250 343 311 212T504 -18Q604 -95 740 -136T1028 -178Q1197 -178 1356 -129T1649 12L1704 -70Q1556 -181 1390 -237T1040 -293Q850 -293 692 -246T412 -106Q258 12 182 168T106 522Q106 687 158 835T309 1104Q455 1282
660 1374T1116 1466Q1279 1466 1426 1421T1679 1294Q1809 1194 1876 1063T1944 780Q1944 605 1881 465T1696 229Q1628 175 1547 146T1380 117Q1281 117 1231 156T1180 274V293Q1125 204 1051 162T879 119Q726 119 646 204T565 451Q565 686 703 845T1042 1004Q1127
1004 1187 967T1284 854ZM1190 475L1249 711Q1232 799 1181 847T1051 895Q913 895 819 765T725 446Q725 341 773 284T911 227Q1008 227 1085 296T1190 475Z" />
<glyph unicode="A" glyph-name="A" horiz-adv-x="1460" d="M1006 549L735 1276L449 549H1006ZM219 0H14L641 1475H852L1444 0H1214L1067 381H383L219 0Z" />
<glyph unicode="B" glyph-name="B" horiz-adv-x="1313" d="M170 0V1475H672Q783 1475 848 1465T965 1432Q1061 1386 1114 1300T1167 1100Q1167 978 1106 895T928 774Q1064 736 1135 638T1206 391Q1206 184 1089 92T698 0H170ZM670 164Q844 164 920 225T997 422Q997
554 916 619T670 684H367V164H670ZM651 848Q816 848 886 901T956 1075Q956 1194 881 1252T651 1311H367V848H651Z" />
<glyph unicode="C" glyph-name="C" horiz-adv-x="1356" d="M1268 397Q1264 203 1119 89T729 -25Q430 -25 273 168T115 729Q115 1096 280 1296T748 1497Q985 1497 1122 1388T1264 1088H1055Q1045 1201 956 1271T729 1341Q539 1341 433 1182T326 735Q326 453 431
299T729 145Q869 145 953 212T1049 397H1268Z" />
<glyph unicode="D" glyph-name="D" horiz-adv-x="1470" d="M682 176Q919 176 1037 311T1155 717Q1155 1004 1024 1158T647 1313H367V176H682ZM637 0H170V1475H584Q801 1475 910 1446T1106 1348Q1230 1250 1296 1088T1362 717Q1362 549 1315 408T1180 174Q1089
80 970 40T637 0Z" />
<glyph unicode="E" glyph-name="E" horiz-adv-x="1237" d="M170 0V1475H1085V1300H367V852H1055V678H367V176H1102V0H170Z" />
<glyph unicode="F" glyph-name="F" horiz-adv-x="1126" d="M170 0V1475H1028V1298H367V846H993V670H367V0H170Z" />
<glyph unicode="G" glyph-name="G" horiz-adv-x="1524" d="M1354 68Q1209 20 1081 -3T836 -27Q497 -27 305 172T113 721Q113 1083 306 1290T836 1497Q1072 1497 1210 1393T1354 1108H1139Q1135 1211 1043 1278T809 1346Q580 1346 451 1183T322 729Q322 447 458
292T844 137Q906 137 978 150T1145 190V629H838V795H1354V68Z" />
<glyph unicode="H" glyph-name="H" horiz-adv-x="1462" d="M371 0H170V1475H371V846H1096V1475H1292V0H1096V670H371V0Z" />
<glyph unicode="I" glyph-name="I" horiz-adv-x="539" d="M367 0H170V1475H367V0Z" />
<glyph unicode="J" glyph-name="J" horiz-adv-x="1081" d="M723 500V1475H920V465Q920 222 807 99T471 -25Q268 -25 157 74T45 356Q45 364 46 378T47 399H242Q242 395 241 384T240 367Q240 260 297 204T461 147Q602 147 662 226T723 500Z" />
<glyph unicode="K" glyph-name="K" horiz-adv-x="1331" d="M170 0V1475H367V842L973 1475H1237L596 819L1315 0H1032L367 780V0H170Z" />
<glyph unicode="L" glyph-name="L" horiz-adv-x="1096" d="M170 0V1475H365V176H1036V0H170Z" />
<glyph unicode="M" glyph-name="M" horiz-adv-x="1862" d="M1497 0V1319L1026 0H856L369 1305V0H172V1475H508L946 272L1364 1475H1690V0H1497Z" />
<glyph unicode="N" glyph-name="N" horiz-adv-x="1503" d="M172 0V1475H453L1151 272V1475H1329V0H1087L354 1251V0H172Z" />
<glyph unicode="O" glyph-name="O" horiz-adv-x="1579" d="M328 743Q328 456 447 301T788 145Q1012 145 1130 297T1249 739Q1249 1028 1130 1181T788 1335Q566 1335 447 1182T328 743ZM117 733Q117 1100 292 1298T791 1497Q1114 1497 1288 1300T1462 733Q1462
370 1287 173T791 -25Q471 -25 294 174T117 733Z" />
<glyph unicode="P" glyph-name="P" horiz-adv-x="1235" d="M651 829Q815 829 885 884T956 1065Q956 1194 887 1249T651 1305H367V829H651ZM170 0V1475H684Q926 1475 1045 1374T1165 1069Q1165 851 1026 749T588 647H367V0H170Z" />
<glyph unicode="Q" glyph-name="Q" horiz-adv-x="1579" d="M1548 0H1034Q995 0 919 -7T805 -14Q475 -14 296 182T117 739Q117 1103 292 1301T791 1499Q1109 1499 1285 1305T1462 760Q1462 563 1407 419T1241 178H1548V0ZM328 750Q328 464 447 312T788 160Q1012
160 1130 311T1249 748Q1249 1033 1130 1185T788 1337Q567 1337 448 1185T328 750Z" />
<glyph unicode="R" glyph-name="R" horiz-adv-x="1327" d="M655 846Q825 846 897 898T969 1069Q969 1189 905 1238T655 1288H367V846H655ZM170 0V1475H690Q934 1475 1057 1378T1180 1090Q1180 958 1109 867T909 741Q1006 719 1051 673T1120 521Q1127 488 1150
310T1212 0H1001Q970 125 950 299T913 516Q883 601 820 633T614 666H367V0H170Z" />
<glyph unicode="S" glyph-name="S" horiz-adv-x="1343" d="M325 432Q330 288 412 219T666 150Q832 150 928 218T1024 406Q1024 575 680 661Q640 671 620 676Q601 681 562 691Q367 739 291 784Q216 829 174 907T131 1081Q131 1273 280 1385T688 1497Q917 1497 1048
1400T1180 1133V1110H981Q976 1218 896 1276T670 1335Q519 1335 430 1270T340 1094Q340 949 671 866Q718 854 743 848Q1039 772 1134 681T1229 424Q1229 213 1082 94T672 -25Q388 -25 252 82T115 412V432H325Z" />
<glyph unicode="T" glyph-name="T" horiz-adv-x="1235" d="M715 0H518V1298H29V1475H1206V1298H715V0Z" />
<glyph unicode="U" glyph-name="U" horiz-adv-x="1491" d="M152 1475H354V604Q354 371 448 263T741 154Q955 154 1051 266T1147 635V1475H1337V512Q1337 260 1175 119T723 -23Q440 -23 296 126T152 567V1475Z" />
<glyph unicode="V" glyph-name="V" horiz-adv-x="1346" d="M764 0H547L33 1475H254L664 229L1102 1475H1315L764 0Z" />
<glyph unicode="W" glyph-name="W" horiz-adv-x="2001" d="M434 0L33 1475H227L545 295L901 1475H1124L1448 268L1780 1475H1968L1542 0H1335L1001 1255L627 0H434Z" />
<glyph unicode="X" glyph-name="X" horiz-adv-x="1434" d="M45 0L606 774L115 1475H346L737 907L1126 1475H1358L846 774L1389 0H1151L721 639L276 0H45Z" />
<glyph unicode="Y" glyph-name="Y" horiz-adv-x="1346" d="M776 0H580V582L18 1475H262L688 756L1102 1475H1327L776 582V0Z" />
<glyph unicode="Z" glyph-name="Z" horiz-adv-x="1233" d="M1159 0H74V209L920 1298H109V1475H1133V1264L295 182H1159V0Z" />
<glyph unicode="[" glyph-name="bracketleft" horiz-adv-x="645" d="M561 -311H213V1475H561V1364H373V-201H561V-311Z" />
<glyph unicode="\" glyph-name="backslash" horiz-adv-x="616" d="M502 -147L-33 1497H90L623 -147H502Z" />
<glyph unicode="]" glyph-name="bracketright" horiz-adv-x="645" d="M84 1475H432V-311H84V-201H270V1364H84V1475Z" />
<glyph unicode="^" glyph-name="asciicircum" horiz-adv-x="2048" d="M1116 1458L1626 901H1446L1024 1321L600 901H420L930 1458H1116Z" />
<glyph unicode="_" glyph-name="underscore" horiz-adv-x="1024" d="M1024 -340V-483H0V-340H1024Z" />
<glyph unicode="`" glyph-name="grave" horiz-adv-x="1024" d="M655 1163H535L250 1511H451L655 1163Z" />
<glyph unicode="a" glyph-name="a" horiz-adv-x="1087" d="M948 0H778Q768 32 758 156V162Q719 71 635 23T428 -25Q272 -25 178 60T84 285Q84 448 214 543T569 639H748V764Q748 847 697 889T545 932Q450 932 395 885T336 756H154V772Q154 908 251 980T532 1053Q745
1053 841 978T938 733V98Q938 85 940 59T948 0ZM748 510H588Q441 510 360 456T279 303Q279 228 334 179T473 129Q606 129 677 200T748 408V510Z" />
<glyph unicode="b" glyph-name="b" horiz-adv-x="1233" d="M158 1475H346V872Q424 961 508 1002T694 1044Q902 1044 1016 906T1130 512Q1130 262 1011 119T682 -25Q573 -25 489 17T346 141L338 0H145Q152 51 155 101T158 205V1475ZM346 496Q346 315 427 208T643
100Q776 100 856 214T936 526Q936 707 855 813T639 920Q506 920 426 806T346 496Z" />
<glyph unicode="c" glyph-name="c" horiz-adv-x="1057" d="M956 346Q944 166 841 71T555 -25Q336 -25 217 109T98 492Q98 757 222 905T569 1053Q742 1053 845 960T948 709V705H764Q764 797 704 858T555 920Q434 920 365 818T295 537Q295 330 359 225T551 119Q650
119 710 180T772 346H956Z" />
<glyph unicode="d" glyph-name="d" horiz-adv-x="1233" d="M297 526Q297 330 377 215T590 100Q725 100 806 206T887 494Q887 690 807 805T594 920Q459 920 378 814T297 526ZM895 0L887 152Q815 58 738 17T557 -25Q345 -25 223 117T100 506Q100 759 219 901T551
1044Q656 1044 741 1001T887 872V1475H1075V205Q1075 151 1078 101T1087 0H895Z" />
<glyph unicode="e" glyph-name="e" horiz-adv-x="1128" d="M301 616H831V639Q831 767 761 845T578 924Q455 924 378 839T301 616ZM1005 330Q1004 170 891 73T590 -25Q350 -25 226 107T102 494Q102 765 224 909T575 1053Q784 1053 904 934T1024 608Q1024 558 1023
532T1020 483H291V463V422Q291 276 366 197T578 117Q691 117 757 174T826 330H1005Z" />
<glyph unicode="f" glyph-name="f" horiz-adv-x="631" d="M180 889H-8V1028H180V1192Q180 1347 251 1423T465 1499Q501 1499 543 1495T637 1480V1329Q580 1343 555 1347T508 1352Q441 1352 406 1310T371 1188V1028H608V889H371V0H180V889Z" />
<glyph unicode="g" glyph-name="g" horiz-adv-x="1214" d="M879 559Q879 725 800 823T588 922Q457 922 379 816T301 528Q301 361 380 264T592 166Q722 166 800 271T879 559ZM856 195Q826 134 737 91T551 47Q334 47 218 176T102 549Q102 779 221 915T541 1051Q661
1051 742 1014T870 901L877 1028H1055Q1051 984 1049 942T1047 846V33Q1047 -197 933 -302T569 -408Q353 -408 254 -326T154 -64H358Q360 -167 418 -220T588 -274Q725 -274 790 -207T856 2V195Z" />
<glyph unicode="h" glyph-name="h" horiz-adv-x="1204" d="M356 858Q391 941 478 990T678 1040Q780 1040 864 1003T997 901Q1024 865 1035 813T1047 637V0H858V649Q858 779 803 840T629 901Q509 901 433 836T356 668V0H166V1475H356V858Z" />
<glyph unicode="i" glyph-name="i" horiz-adv-x="512" d="M367 1266H145V1475H367V1266ZM162 0V1028H352V0H162Z" />
<glyph unicode="j" glyph-name="j" horiz-adv-x="512" d="M362 1266H143V1475H362V1266ZM158 -72V1028H348V-111Q348 -263 282 -333T74 -403Q55 -403 2 -398Q-17 -396 -27 -395V-256Q87 -256 122 -226T158 -72Z" />
<glyph unicode="k" glyph-name="k" horiz-adv-x="1008" d="M346 0H156V1475H346V608L735 1030H967L539 586L997 0H764L346 551V0Z" />
<glyph unicode="l" glyph-name="l" horiz-adv-x="512" d="M352 0H162V1475H352V0Z" />
<glyph unicode="m" glyph-name="m" horiz-adv-x="1868" d="M356 0H166V815Q166 843 164 900T158 1028H350L356 854Q396 939 480 989T668 1040Q772 1040 855 996T1006 860Q1085 957 1165 998T1350 1040Q1458 1040 1547 995T1675 875Q1693 840 1700 785T1708 629V0H1524V655Q1524
775 1468 835T1298 895Q1183 895 1110 823T1036 637V0H844V621Q844 763 789 830T618 897Q495 897 426 825T356 621V0Z" />
<glyph unicode="n" glyph-name="n" horiz-adv-x="1204" d="M356 860Q391 943 477 991T678 1040Q780 1040 864 1003T997 901Q1024 865 1035 814T1047 639V0H858V649Q858 779 803 840T629 901Q509 901 433 836T356 668V0H166V817Q166 874 164 926T158 1028H350L356 860Z" />
<glyph unicode="o" glyph-name="o" horiz-adv-x="1233" d="M618 915Q472 915 387 805T301 504Q301 320 383 220T614 119Q763 119 847 225T932 520Q932 708 850 811T618 915ZM106 494Q106 752 243 901T618 1051Q858 1051 991 912T1124 522Q1124 263 987 119T600
-25Q371 -25 239 114T106 494Z" />
<glyph unicode="p" glyph-name="p" horiz-adv-x="1233" d="M346 535Q346 339 426 224T639 109Q774 109 855 216T936 504Q936 700 857 814T643 928Q509 928 428 822T346 535ZM158 -389V825Q158 877 155 926T145 1028H338L346 874Q404 964 486 1008T678 1053Q891
1053 1010 912T1130 518Q1130 259 1015 122T682 -16Q578 -16 492 28T346 158V-389H158Z" />
<glyph unicode="q" glyph-name="q" horiz-adv-x="1233" d="M885 535Q885 715 804 821T588 928Q455 928 376 815T297 504Q297 323 378 216T594 109Q726 109 805 223T885 535ZM1075 -389H885V158Q825 73 739 29T551 -16Q333 -16 217 122T100 518Q100 770 220 911T555
1053Q663 1053 745 1009T885 874L893 1028H1085Q1080 983 1078 939T1075 825V-389Z" />
<glyph unicode="r" glyph-name="r" horiz-adv-x="758" d="M156 0V866Q156 917 155 954T150 1028H340L344 831Q372 929 444 978T633 1028Q654 1028 673 1027T711 1021V844Q680 850 654 853T608 856Q481 856 413 784T344 578V0H156Z" />
<glyph unicode="s" glyph-name="s" horiz-adv-x="1006" d="M84 309H274V305Q274 221 333 170T492 119Q588 119 647 164T707 281Q707 334 677 367T583 416L365 467Q227 499 160 566T92 735Q92 876 206 963T508 1051Q681 1051 781 979T881 780Q881 768 881 762T879
750H690V758Q690 832 638 875T494 918Q405 918 347 875T289 768Q289 718 324 688T440 635L674 571Q795 539 853 471T911 295Q911 149 800 62T500 -25Q285 -25 185 50T84 285V309Z" />
<glyph unicode="t" glyph-name="t" horiz-adv-x="649" d="M20 1028H195V1239L383 1303V1028H612V893H383V262Q383 182 409 157T514 131Q534 131 557 134T608 145V2Q562 -10 525 -16T459 -23Q314 -23 255 27T195 195V893H20V1028Z" />
<glyph unicode="u" glyph-name="u" horiz-adv-x="1204" d="M848 162Q813 79 726 30T524 -20Q424 -20 340 17T207 121Q180 157 169 208T158 383V1028H346V371Q346 241 402 180T575 119Q695 119 771 185T848 354V1028H1038V203Q1038 142 1040 93T1047 0H854L848 162Z" />
<glyph unicode="v" glyph-name="v" horiz-adv-x="1112" d="M453 0L33 1028H225L553 213L885 1028H1073L639 0H453Z" />
<glyph unicode="w" glyph-name="w" horiz-adv-x="1659" d="M954 1028L1188 203L1450 1028H1634L1278 0H1079L831 864L561 0H360L23 1028H209L465 203L723 1028H954Z" />
<glyph unicode="x" glyph-name="x" horiz-adv-x="1118" d="M27 0L422 541L53 1028H295L565 643L848 1028H1067L676 532L1069 0H825L532 414L244 0H27Z" />
<glyph unicode="y" glyph-name="y" horiz-adv-x="1112" d="M453 0L33 1028H225L553 213L885 1028H1073L471 -389H295L453 0Z" />
<glyph unicode="z" glyph-name="z" horiz-adv-x="899" d="M66 0V190L614 887H100V1028H823V862L260 145H821V0H66Z" />
<glyph unicode="{" glyph-name="braceleft" horiz-adv-x="1024" d="M866 1327H825Q705 1327 664 1283T623 1098V856Q623 696 579 628T422 530Q535 502 579 434T623 205V-37Q623 -178 664 -222T827 -266H866V-414H823Q715 -414 654 -403T551 -365Q496 -331 474
-268T451 -57V188Q451 337 397 398T211 459Q204 459 190 458T168 457V606Q176 606 191 605T213 604Q343 604 397 664T451 872V1118Q451 1266 473 1328T551 1425Q596 1453 659 1465T829 1477H866V1327Z" />
<glyph unicode="|" glyph-name="bar" horiz-adv-x="1024" d="M588 1565V-483H438V1565H588Z" />
<glyph unicode="}" glyph-name="braceright" horiz-adv-x="1024" d="M575 1118V872Q575 725 629 665T813 604Q820 604 835 605T858 606V457Q851 457 836 458T815 459Q683 459 629 399T575 188V-57Q575 -205 553 -268T475 -365Q433 -391 372 -402T203 -414H160V-266H199Q319
-266 361 -221T403 -35V205Q403 365 447 433T604 530Q492 560 448 628T403 856V1098Q403 1238 361 1282T199 1327H160V1477H197Q304 1477 368 1465T475 1425Q530 1391 552 1329T575 1118Z" />
<glyph unicode="~" glyph-name="asciitilde" horiz-adv-x="1706" d="M1530 614Q1426 542 1331 508T1141 473Q1048 473 885 531Q863 539 851 543L836 548Q660 608 563 608Q479 608 388 571T178 451V606Q284 678 380 714T565 750Q627 750 692 737T856 688Q872 683
903 671Q1062 614 1143 614Q1231 614 1322 651T1530 770V614Z" />
<glyph unicode="&#x80;" glyph-name="Euro" horiz-adv-x="1133" d="M147 551H6L59 668H141Q140 692 140 714T139 756Q139 768 139 781T141 811H-23L29 928H147Q167 1204 296 1350T647 1497Q840 1497 948 1389T1063 1079L864 1080Q855 1199 795 1267T637 1335Q516
1335 440 1228T348 928H791L739 811H340Q339 787 339 766T338 723Q338 710 338 697T340 668H674L621 551H348Q363 349 437 243T637 137Q733 137 793 207T858 395H1067Q1065 203 948 89T633 -25Q424 -25 298 125T147 551Z" />
</font>
</defs>
</svg>
